{"glyphs":{":":{"x_min":0,"x_max":254,"ha":254,"o":"m 118 372 l 180 428 q 192 438 198 438 q 203 438 209 428 l 241 372 q 248 358 233 345 l 172 288 q 160 278 154 278 q 148 278 142 288 l 111 345 q 103 358 118 372 z m 40 80 l 102 137 q 113 147 119 147 q 125 147 131 137 l 162 80 q 170 67 156 53 l 93 -3 q 82 -14 76 -14 q 70 -14 64 -3 l 32 53 q 26 67 40 80 z"},"$":{"x_min":0,"x_max":463,"ha":463,"o":"m 293 579 l 318 668 l 370 668 l 347 580 q 410 574 441 540 q 472 507 458 458 q 443 400 386 400 q 360 400 350 415 q 340 429 346 452 q 349 466 358 476 q 368 486 387 497 q 392 500 393 504 q 396 513 380 523 q 363 532 334 536 l 282 342 l 294 339 q 362 318 394 279 q 425 241 406 168 q 385 92 328 45 q 270 -2 188 -8 l 162 -108 l 109 -108 l 136 -9 q 98 -7 72 2 q 31 18 13 50 q -5 82 7 123 q 15 155 38 175 q 60 195 91 195 q 114 195 125 180 q 135 165 129 143 q 120 108 79 87 q 71 83 70 78 q 66 65 88 52 q 109 39 148 36 l 207 253 q 168 266 132 292 q 104 312 95 347 q 86 382 98 422 q 114 486 166 527 q 218 568 293 579 z m 234 358 l 282 534 q 242 530 211 505 q 180 480 172 449 q 155 388 234 358 z m 255 240 l 201 37 q 224 39 242 46 q 274 58 297 81 q 320 105 329 139 q 347 202 281 232 q 269 237 255 240 z"},"?":{"x_min":0,"x_max":416,"ha":416,"o":"m 328 458 q 338 498 321 519 q 304 540 268 540 q 245 540 233 535 q 222 530 218 520 q 215 510 215 499 q 215 488 215 473 q 214 458 210 447 q 203 431 181 420 q 159 410 134 410 q 104 410 94 427 q 83 443 91 471 q 105 521 164 554 q 223 587 302 587 q 380 587 418 549 q 457 512 441 450 q 430 410 401 382 q 372 353 303 310 q 228 263 203 216 q 200 208 190 198 q 178 186 174 186 q 171 187 163 198 q 158 208 164 227 q 173 252 189 275 q 205 299 220 315 q 234 330 266 361 q 272 368 276 371 q 314 408 328 458 z m 90 80 l 148 139 q 158 149 164 149 q 169 149 173 139 l 200 80 q 206 67 192 53 l 135 -6 q 124 -17 119 -17 q 114 -17 109 -6 l 82 53 q 77 67 90 80 z"},"<":{"x_min":0,"x_max":505,"ha":505,"o":"m 498 365 l 126 211 l 416 57 l 397 -14 l 25 179 l 42 242 l 518 436 z"},"'":{"x_min":0,"x_max":199,"ha":199,"o":"m 71 315 l 138 520 q 141 527 147 538 q 172 587 228 587 q 254 587 262 574 q 270 562 258 538 q 251 526 247 520 l 93 315 z"},"=":{"x_min":0,"x_max":505,"ha":505,"o":"m 3 93 l 21 160 l 441 160 l 423 93 z m 48 262 l 67 328 l 487 328 l 468 262 z"},"a":{"x_min":0,"x_max":478,"ha":478,"o":"m 330 379 l 402 379 l 319 99 q 310 67 310 54 q 310 46 315 40 q 321 33 328 33 q 361 33 410 132 l 436 118 q 422 86 395 48 q 352 -12 298 -12 q 275 -12 261 2 q 247 18 247 42 q 247 52 251 68 q 220 23 192 5 q 163 -12 124 -12 q 68 -12 35 25 q 1 62 1 123 q 1 228 68 315 q 128 392 206 392 q 247 392 275 367 q 303 342 308 304 z m 220 346 q 181 346 153 317 q 120 282 98 225 q 77 167 77 112 q 77 73 95 52 q 112 30 143 30 q 203 30 241 105 q 283 192 283 272 q 283 306 266 326 q 249 346 220 346 z"},"L":{"x_min":0,"x_max":556,"ha":556,"o":"m 491 211 l 525 204 l 460 0 l -31 0 l -27 39 l -22 39 q 34 39 47 51 q 54 58 66 102 l 172 499 q 180 529 180 540 q 180 554 168 558 q 155 562 114 562 l 92 562 l 98 602 l 378 602 l 372 562 l 354 562 q 297 562 285 551 q 279 546 277 539 q 275 532 266 499 l 162 112 q 152 78 152 66 q 152 51 165 45 q 178 39 211 39 l 246 39 q 334 39 385 75 q 436 110 491 211 z"},"3":{"x_min":0,"x_max":475,"ha":475,"o":"m 320 307 q 382 295 405 255 q 429 216 413 157 q 392 80 322 34 q 252 -12 158 -12 q 73 -12 30 25 q -12 63 3 124 q 12 156 37 177 q 62 198 89 198 q 117 198 130 184 q 143 170 137 145 q 128 116 91 96 q 77 89 73 86 q 69 83 68 78 q 62 60 92 46 q 122 32 156 32 q 211 32 250 66 q 289 101 304 158 q 320 214 305 248 q 290 281 244 281 q 237 281 205 280 q 194 279 185 279 q 159 279 166 304 q 172 331 199 331 q 211 331 218 330 q 242 328 251 328 q 295 328 325 358 q 356 388 370 442 q 382 488 367 515 q 352 542 308 542 q 276 542 245 530 q 213 517 210 502 q 208 495 217 488 q 238 469 231 445 q 225 422 206 409 q 188 395 160 395 q 132 395 120 411 q 108 427 116 453 q 131 510 193 548 q 255 587 332 587 q 414 587 452 548 q 491 508 473 443 q 462 399 428 365 q 393 332 342 313 q 339 312 337 312 q 334 311 330 310 q 325 308 320 307 z"},";":{"x_min":0,"x_max":254,"ha":254,"o":"m 40 80 l 102 137 q 113 147 119 147 q 125 147 131 137 l 162 80 q 168 69 156 53 l 31 -93 q 19 -104 9 -100 q -1 -97 8 -81 l 47 -3 q 55 13 49 23 l 32 53 q 26 67 40 80 z m 118 372 l 180 428 q 192 438 198 438 q 203 438 209 428 l 241 372 q 248 358 233 345 l 172 288 q 160 278 154 278 q 148 278 142 288 l 111 345 q 103 358 118 372 z"},"J":{"x_min":0,"x_max":509,"ha":509,"o":"m 272 562 l 277 602 l 538 602 l 534 562 l 531 562 q 478 562 467 551 q 460 544 448 499 l 357 160 q 332 71 282 29 q 232 -12 148 -12 q 73 -12 31 22 q -11 57 -11 119 q -11 170 18 205 q 48 240 90 240 q 119 240 138 224 q 156 208 156 181 q 156 155 140 139 q 125 122 101 122 q 82 122 62 134 q 58 137 51 137 q 42 137 35 129 q 29 122 29 110 q 29 73 58 48 q 88 23 131 23 q 183 23 215 60 q 246 96 269 182 l 354 499 q 362 532 362 540 q 362 554 350 558 q 338 562 297 562 z"},"V":{"x_min":0,"x_max":587,"ha":587,"o":"m 278 129 l 464 463 q 490 508 490 528 q 490 562 428 562 l 412 562 l 417 602 l 643 602 l 639 562 q 595 558 569 534 q 542 510 494 428 l 247 -12 l 216 -12 l 118 481 q 108 531 96 547 q 83 562 53 562 l 30 562 l 36 602 l 282 602 l 278 562 l 249 562 q 218 562 209 558 q 199 552 199 536 q 199 523 206 492 z"},"\"":{"x_min":0,"x_max":356,"ha":356,"o":"m 71 315 l 138 520 q 140 527 146 538 q 172 587 227 587 q 254 587 262 574 q 270 562 257 538 q 251 526 247 520 l 93 315 z m 229 315 l 296 520 q 298 527 304 538 q 317 561 338 574 q 360 587 386 587 q 412 587 420 574 q 428 562 417 538 q 413 533 404 520 l 252 315 z"},"7":{"x_min":0,"x_max":475,"ha":475,"o":"m 509 539 l 451 461 q 346 315 309 246 q 272 177 251 88 q 238 34 216 11 q 195 -12 161 -12 q 130 -12 120 5 q 109 21 117 50 q 132 108 196 200 q 233 253 341 389 l 415 487 q 392 486 363 486 q 322 486 228 491 q 221 492 209 492 q 191 492 180 480 q 170 469 150 428 l 125 379 l 86 385 l 166 587 q 293 578 390 578 q 458 578 522 583 z"},"S":{"x_min":0,"x_max":556,"ha":556,"o":"m 527 596 l 482 378 l 447 384 q 448 392 448 401 q 448 483 409 531 q 371 578 304 578 q 248 578 211 547 q 174 516 174 469 q 174 408 269 370 l 340 342 q 414 312 444 276 q 474 239 474 178 q 474 96 411 42 q 348 -12 250 -12 q 148 -12 78 52 l 29 0 l 0 0 l 46 238 l 79 232 q 78 222 78 208 q 78 127 122 77 q 170 23 249 23 q 313 23 354 56 q 394 89 394 142 q 394 188 358 215 q 344 224 292 245 l 221 275 q 161 301 138 326 q 98 369 98 428 q 98 507 156 560 q 214 614 298 614 q 388 614 450 552 l 495 596 z"},"}":{"x_min":0,"x_max":278,"ha":278,"o":"m 232 269 l 224 242 q 195 234 182 227 q 169 219 158 205 q 150 194 145 182 q 141 170 130 132 l 104 35 q 83 -43 48 -68 q 34 -78 10 -84 q -13 -90 -37 -90 l -58 -90 l -50 -62 q -9 -59 10 -38 q 29 -17 45 43 l 74 152 q 86 194 102 215 q 118 235 158 256 q 129 277 124 297 q 118 317 130 360 l 159 468 q 175 528 167 550 q 159 571 120 573 l 128 602 l 148 602 q 172 602 192 595 q 212 589 221 579 q 243 555 222 477 l 197 380 q 186 339 184 325 q 182 312 188 300 q 192 289 200 283 q 209 278 232 269 z"},"Z":{"x_min":0,"x_max":556,"ha":556,"o":"m 556 602 l 551 569 l 106 39 l 218 39 q 280 39 321 53 q 362 68 394 100 q 416 122 432 146 q 448 171 474 223 l 509 213 l 441 0 l -21 0 l -16 32 l 428 562 l 348 562 q 247 562 201 528 q 178 511 164 492 q 150 473 112 410 q 108 402 103 393 l 69 402 l 137 602 z"},"x":{"x_min":0,"x_max":417,"ha":417,"o":"m 168 129 l 142 84 q 88 -12 28 -12 q 2 -12 -12 2 q -28 16 -28 39 q -28 61 -15 74 q -3 88 15 88 q 45 88 51 55 q 53 38 63 38 q 85 38 121 104 l 158 171 l 148 219 q 132 302 124 315 q 118 328 107 328 q 96 328 83 314 q 70 300 38 254 l 14 272 q 62 342 77 358 q 108 392 134 392 q 160 392 175 369 q 190 347 201 292 l 210 247 l 234 290 q 254 328 260 337 q 267 347 280 361 q 308 392 345 392 q 366 392 379 377 q 392 362 392 341 q 392 320 381 308 q 370 296 351 296 q 339 296 334 300 q 328 304 322 317 q 318 328 308 328 q 286 328 256 272 l 219 204 l 235 125 q 247 73 255 56 q 263 38 278 38 q 298 38 331 83 q 342 100 354 118 l 380 104 q 357 62 341 44 q 312 9 296 -2 q 280 -12 257 -12 q 226 -12 208 7 q 191 27 180 73 z"},")":{"x_min":0,"x_max":290,"ha":290,"o":"m -33 -102 l -38 -72 q 40 -17 87 59 q 134 135 167 256 q 199 376 192 452 q 186 528 138 582 l 158 613 q 193 588 213 566 q 232 544 248 513 q 304 401 265 256 q 245 180 201 110 q 158 40 95 -16 q 46 -61 -33 -102 z"},"&":{"x_min":0,"x_max":679,"ha":679,"o":"m 582 141 l 618 136 q 599 88 568 54 q 537 21 505 6 q 473 -9 433 -9 q 399 -9 375 3 q 352 16 330 47 q 281 15 240 1 q 199 -12 154 -12 q 69 -12 36 38 q 21 62 17 94 q 12 127 21 158 q 36 213 85 261 q 135 308 214 342 q 199 417 212 467 q 230 533 281 574 q 332 614 398 614 q 456 614 483 583 q 511 552 498 502 q 489 468 463 437 q 438 405 403 385 q 372 367 311 342 q 348 208 390 136 q 425 168 450 201 q 475 235 482 262 q 487 281 470 291 q 454 301 418 301 l 409 301 l 418 337 l 653 337 l 644 301 l 635 301 q 593 301 563 278 q 550 267 540 255 q 530 244 484 188 q 463 162 452 150 q 442 139 408 108 q 442 57 486 57 q 513 57 539 79 q 565 102 582 141 z m 302 378 q 327 388 330 390 q 412 428 431 500 q 440 534 427 556 q 414 578 386 578 q 358 578 333 555 q 308 532 298 496 q 287 452 302 378 z m 221 308 q 178 287 154 262 q 131 237 122 202 q 105 140 135 92 q 164 44 219 44 q 240 44 260 51 q 279 58 312 75 q 276 137 258 182 q 241 227 221 308 z"},"_":{"x_min":0,"x_max":417,"ha":417,"o":"m -80 -61 l 337 -61 l 323 -112 l -93 -112 z"},"v":{"x_min":0,"x_max":432,"ha":432,"o":"m 185 392 l 128 199 q 108 132 108 96 q 108 68 124 50 q 140 31 163 31 q 196 31 229 60 q 262 89 286 140 q 322 215 322 264 q 322 278 318 286 q 314 295 299 312 q 282 332 282 350 q 282 367 292 379 q 303 392 319 392 q 341 392 356 372 q 371 353 371 326 q 371 277 350 211 q 329 146 298 95 q 230 -13 143 -13 q 98 -13 68 18 q 38 49 38 96 q 38 137 53 191 l 82 287 q 90 312 90 325 q 90 349 42 349 l 28 349 l 31 379 z"},"O":{"x_min":0,"x_max":648,"ha":648,"o":"m 381 614 q 478 614 546 548 q 612 482 612 375 q 612 295 581 220 q 549 144 492 87 q 391 -12 260 -12 q 156 -12 95 53 q 33 118 33 229 q 33 388 141 502 q 246 614 381 614 z m 383 578 q 299 578 234 495 q 193 442 162 345 q 132 248 132 172 q 132 103 167 63 q 202 23 262 23 q 311 23 354 49 q 397 74 425 120 q 464 182 490 266 q 515 349 515 413 q 515 442 507 476 q 498 509 487 528 q 473 551 445 565 q 416 578 383 578 z"},"(":{"x_min":0,"x_max":290,"ha":290,"o":"m 332 613 l 336 580 q 259 525 212 449 q 164 373 132 253 q 100 133 107 57 q 113 -19 161 -74 l 141 -102 q 106 -77 86 -55 q 67 -33 51 -2 q -4 112 34 256 q 76 412 205 528 q 254 572 332 613 z"},"C":{"x_min":0,"x_max":602,"ha":602,"o":"m 514 548 l 564 596 l 594 596 l 548 362 l 513 362 q 510 452 492 494 q 458 578 375 578 q 332 578 292 554 q 252 530 223 486 q 184 425 161 348 q 138 271 138 200 q 138 125 176 78 q 213 28 292 28 q 386 28 447 104 q 467 128 494 186 l 528 171 q 498 100 462 62 q 389 -12 278 -12 q 168 -12 100 55 q 33 122 33 233 q 33 374 127 488 q 228 614 368 614 q 458 614 514 548 z"},"W":{"x_min":0,"x_max":772,"ha":772,"o":"m 525 163 l 661 477 q 680 522 680 537 q 680 562 627 562 l 612 562 l 617 602 l 811 602 l 807 562 q 764 553 744 532 q 723 510 694 443 l 496 -12 l 464 -12 l 406 408 l 217 -12 l 188 -12 l 122 489 q 115 540 106 549 q 95 562 66 562 l 44 562 l 48 602 l 271 602 l 266 562 l 251 562 q 225 562 214 557 q 203 552 203 538 q 203 528 208 499 l 252 163 l 392 482 l 387 524 q 383 551 374 557 q 364 562 324 562 l 313 562 l 318 602 l 549 602 l 545 562 l 529 562 q 499 562 489 558 q 478 553 478 540 q 478 534 480 518 z"},"A":{"x_min":0,"x_max":587,"ha":587,"o":"m 368 614 l 472 90 q 479 58 490 48 q 502 39 536 39 l 557 39 l 552 0 l 302 0 l 306 39 l 319 39 q 355 39 367 45 q 379 51 379 69 q 379 76 376 96 l 357 198 l 144 198 l 98 118 q 83 93 83 72 q 83 53 96 46 q 108 39 141 39 l 161 39 l 156 0 l -68 0 l -64 39 q -30 39 -2 62 q 26 85 59 140 l 334 614 z m 350 238 l 302 477 l 167 238 z"},"f":{"x_min":0,"x_max":278,"ha":278,"o":"m 182 379 l 290 379 l 278 340 l 173 340 l 122 134 q 80 -31 35 -153 l -57 -168 q 22 6 67 195 l 101 340 l 27 340 l 38 379 l 110 379 q 138 480 168 530 q 218 613 299 613 q 339 613 365 592 q 392 571 392 538 q 392 519 379 507 q 366 494 347 494 q 328 494 316 505 q 303 516 303 532 q 303 543 311 555 q 317 565 317 570 q 317 584 297 584 q 252 584 223 512 q 206 471 182 379 z"},"Q":{"x_min":0,"x_max":648,"ha":648,"o":"m 415 22 l 415 4 q 416 -38 420 -55 q 424 -72 437 -85 q 446 -92 457 -92 q 490 -92 519 -32 l 548 -50 q 525 -92 504 -116 q 468 -157 417 -157 q 375 -157 348 -125 q 321 -92 321 -42 q 321 -26 324 -7 q 295 -12 269 -12 q 159 -12 96 52 q 33 118 33 232 q 33 331 81 419 q 128 508 208 561 q 288 614 377 614 q 476 614 542 552 q 612 488 612 372 q 612 249 537 139 q 497 82 415 22 z m 404 97 q 454 166 483 253 q 512 340 512 421 q 512 498 483 533 q 468 553 439 565 q 411 578 379 578 q 333 578 291 550 q 248 522 217 470 q 178 408 155 324 q 131 241 131 167 q 131 100 162 60 q 155 85 155 102 q 155 155 190 189 q 224 222 278 222 q 332 222 365 190 q 398 158 404 97 z m 330 38 q 338 79 338 98 q 338 136 318 159 q 298 182 265 182 q 231 182 208 158 q 186 134 186 98 q 186 63 208 44 q 229 24 268 24 q 297 24 330 38 z"},"w":{"x_min":0,"x_max":648,"ha":648,"o":"m 188 392 l 115 148 q 98 92 98 72 q 98 55 111 43 q 123 32 142 32 q 184 32 228 94 q 278 162 301 240 l 342 379 l 415 379 l 361 199 q 342 132 342 91 q 342 63 354 48 q 366 32 388 32 q 446 32 503 138 q 541 211 541 265 q 541 278 537 287 q 532 295 518 312 q 500 332 500 350 q 500 368 511 380 q 522 392 538 392 q 560 392 575 372 q 590 353 590 326 q 590 275 568 206 q 545 138 511 85 q 478 34 443 11 q 408 -12 366 -12 q 325 -12 300 12 q 276 37 276 78 q 276 85 278 112 q 242 59 214 31 q 172 -12 116 -12 q 75 -12 51 10 q 27 32 27 68 q 27 93 41 139 l 84 287 q 91 308 91 322 q 91 337 80 343 q 70 349 44 349 l 30 349 l 33 379 z"},"-":{"x_min":0,"x_max":354,"ha":354,"o":"m 326 280 l 294 218 q 288 206 275 206 l 39 206 q 22 206 31 222 l 62 284 q 69 297 82 297 l 318 297 q 334 297 326 280 z"},"E":{"x_min":0,"x_max":602,"ha":602,"o":"m 584 602 l 552 401 l 514 401 l 514 430 q 514 473 508 496 q 501 519 483 535 q 452 562 398 562 l 350 562 q 303 562 290 554 q 278 545 267 505 l 221 334 l 240 334 q 301 334 335 359 q 370 383 388 438 l 426 433 l 352 155 l 314 162 q 322 196 322 219 q 322 295 229 295 l 211 295 l 162 112 q 152 77 152 66 q 152 51 165 45 q 178 39 211 39 l 256 39 q 354 39 412 88 q 436 108 452 131 q 468 153 497 204 l 501 211 l 535 204 l 470 0 l -31 0 l -27 39 l -22 39 q 34 39 47 51 q 54 58 66 102 l 172 499 q 180 529 180 540 q 180 554 168 558 q 155 562 114 562 l 92 562 l 98 602 z"},"s":{"x_min":0,"x_max":370,"ha":370,"o":"m 203 392 q 258 392 292 368 q 327 343 327 305 q 327 282 313 268 q 300 254 279 254 q 260 254 248 265 q 236 276 236 292 q 236 307 249 326 q 253 332 253 338 q 253 348 238 354 q 223 360 199 360 q 162 360 138 341 q 114 322 114 293 q 114 269 128 256 q 142 242 182 228 q 232 210 255 196 q 297 168 297 116 q 297 59 252 23 q 207 -12 135 -12 q 72 -12 36 13 q -1 38 -1 82 q -1 106 13 122 q 27 138 48 138 q 66 138 78 125 q 90 113 90 96 q 90 85 87 79 q 84 72 72 60 q 67 56 67 48 q 67 35 87 27 q 108 19 139 19 q 182 19 208 39 q 234 59 234 92 q 234 114 222 126 q 210 138 175 152 q 137 168 110 181 q 52 211 52 266 q 52 320 95 356 q 138 392 203 392 z"},">":{"x_min":0,"x_max":505,"ha":505,"o":"m 74 365 l 93 436 l 466 242 l 449 179 l -28 -14 l -8 57 l 365 211 z"},"l":{"x_min":0,"x_max":278,"ha":278,"o":"m 245 614 l 91 93 q 80 58 80 48 q 80 30 95 30 q 132 30 198 131 l 223 117 q 148 -12 68 -12 q 42 -12 28 3 q 13 19 13 46 q 13 77 36 152 l 142 509 q 149 534 149 546 q 149 572 102 572 l 76 572 l 79 602 z"},"8":{"x_min":0,"x_max":475,"ha":475,"o":"m 344 325 q 382 307 400 288 q 442 242 422 168 q 412 129 387 94 q 361 58 327 35 q 259 -12 161 -12 q 76 -12 33 23 q 12 43 4 75 q -4 106 5 140 q 23 208 88 249 q 117 268 171 287 q 150 299 140 308 q 130 316 122 328 q 95 369 111 428 q 129 497 193 542 q 258 587 337 587 q 412 587 450 549 q 489 512 474 454 q 452 375 344 325 z m 262 359 l 307 341 q 348 369 367 392 q 387 416 394 446 q 406 489 386 516 q 366 542 322 542 q 277 542 243 519 q 209 496 198 458 q 189 424 204 401 q 219 378 262 359 z m 275 242 l 210 268 q 159 247 132 218 q 104 188 92 143 q 78 91 100 61 q 122 32 178 32 q 234 32 276 60 q 318 88 331 137 q 341 176 328 200 q 315 225 275 242 z"},"\\":{"x_min":0,"x_max":505,"ha":505,"o":"m 210 614 l 379 0 l 331 0 l 162 614 z"},"e":{"x_min":0,"x_max":370,"ha":370,"o":"m 282 97 l 302 74 q 236 -12 139 -12 q 72 -12 33 26 q -5 64 -5 132 q -5 233 65 312 q 136 392 227 392 q 271 392 298 368 q 326 344 326 306 q 326 231 226 187 q 183 168 74 142 q 72 120 72 113 q 72 73 94 50 q 116 27 153 27 q 215 27 282 97 z m 78 174 q 134 186 163 199 q 256 240 256 311 q 256 332 243 345 q 231 358 210 358 q 164 358 128 308 q 92 258 78 174 z"},"b":{"x_min":0,"x_max":463,"ha":463,"o":"m 242 614 l 153 316 q 188 358 218 375 q 248 392 284 392 q 340 392 373 353 q 407 314 407 250 q 407 133 322 52 q 256 -12 162 -12 q 101 -12 64 20 q 27 52 27 107 q 27 132 38 172 l 138 509 q 146 537 146 545 q 146 559 135 565 q 124 572 98 572 l 78 572 l 82 602 z m 257 341 q 195 341 147 265 q 98 183 98 100 q 98 62 116 40 q 135 19 169 19 q 233 19 279 96 q 324 172 324 254 q 324 295 306 318 q 288 341 257 341 z"},"%":{"x_min":0,"x_max":707,"ha":707,"o":"m 393 499 q 392 488 391 485 q 381 447 353 405 q 326 362 290 331 q 220 268 152 268 q 105 268 83 297 q 61 326 72 371 q 84 412 123 464 q 162 515 208 547 q 271 590 326 590 q 351 590 365 581 q 380 572 391 551 q 418 532 447 532 q 531 532 600 602 l 651 602 l 145 0 l 91 0 l 524 517 q 478 492 433 492 q 412 492 393 499 z m 317 545 q 291 537 275 525 q 260 512 229 475 q 190 429 173 403 q 156 378 151 357 q 145 337 153 324 q 162 312 181 312 q 226 312 280 366 q 333 421 350 483 q 355 499 354 514 q 328 524 317 545 z m 600 334 q 642 334 662 306 q 682 278 672 235 q 662 198 632 154 q 603 110 565 74 q 500 12 431 12 q 384 12 361 41 q 338 70 349 113 q 359 148 385 188 q 412 228 447 262 q 526 334 600 334 z m 598 288 q 565 288 518 233 q 438 143 427 101 q 422 82 430 70 q 439 58 457 58 q 502 58 557 112 q 612 166 628 228 q 635 252 626 270 q 618 288 598 288 z"},"m":{"x_min":0,"x_max":741,"ha":741,"o":"m 192 392 l 168 279 q 212 342 245 367 q 278 392 317 392 q 351 392 374 370 q 398 348 398 314 q 398 298 392 274 q 465 392 553 392 q 588 392 609 370 q 631 349 631 316 q 631 285 621 253 l 568 92 q 558 59 558 51 q 558 42 564 36 q 569 30 576 30 q 607 30 672 127 l 698 109 q 657 50 634 28 q 592 -12 552 -12 q 522 -12 505 4 q 487 20 487 46 q 487 63 490 78 q 493 92 510 139 l 548 258 q 560 294 560 311 q 560 342 528 342 q 504 342 475 322 q 446 303 423 272 q 385 222 355 121 l 319 0 l 247 0 l 313 226 q 330 278 330 309 q 330 342 295 342 q 248 342 198 278 q 148 213 119 118 l 85 0 l 12 0 l 98 287 q 104 311 104 322 q 104 349 58 349 l 38 349 l 40 379 z"},"#":{"x_min":0,"x_max":475,"ha":475,"o":"m 96 182 l 12 182 l 27 237 l 118 237 l 163 347 l 78 347 l 93 402 l 187 402 l 257 572 l 317 572 l 247 402 l 349 402 l 419 572 l 479 572 l 409 402 l 492 402 l 477 347 l 386 347 l 341 237 l 425 237 l 410 182 l 318 182 l 243 0 l 183 0 l 258 182 l 156 182 l 81 0 l 21 0 z m 223 347 l 178 237 l 281 237 l 326 347 z"},",":{"x_min":0,"x_max":255,"ha":255,"o":"m 40 80 l 102 137 q 113 147 119 147 q 125 147 131 137 l 162 80 q 168 69 156 53 l 31 -93 q 19 -104 9 -100 q -1 -97 8 -81 l 47 -3 q 55 13 49 23 l 32 53 q 26 67 40 80 z"},"n":{"x_min":0,"x_max":509,"ha":509,"o":"m 191 392 l 167 279 q 248 392 321 392 q 354 392 378 368 q 401 344 401 311 q 401 273 381 217 l 342 102 q 326 58 326 46 q 326 39 330 35 q 334 30 341 30 q 381 30 444 130 l 468 112 q 396 -12 316 -12 q 291 -12 274 5 q 258 22 258 49 q 258 74 272 119 l 317 249 q 329 288 329 308 q 329 322 320 332 q 310 342 296 342 q 269 342 238 319 q 207 296 180 256 q 158 223 146 197 q 135 171 118 116 l 84 0 l 12 0 l 97 287 q 104 314 104 323 q 104 349 57 349 l 37 349 l 40 379 z"},"h":{"x_min":0,"x_max":509,"ha":509,"o":"m 254 614 l 155 279 q 237 392 312 392 q 348 392 372 368 q 396 345 396 310 q 396 273 376 217 l 337 102 q 321 58 321 46 q 321 39 325 35 q 329 30 336 30 q 375 30 438 128 l 462 111 q 429 52 390 20 q 350 -12 311 -12 q 286 -12 269 5 q 252 23 252 50 q 252 73 268 119 l 312 249 q 324 288 324 308 q 324 322 314 332 q 303 342 288 342 q 228 342 168 256 q 146 224 135 198 q 123 171 107 116 l 72 0 l 0 0 l 151 509 q 158 535 158 546 q 158 572 111 572 l 85 572 l 88 602 z"},"z":{"x_min":0,"x_max":386,"ha":386,"o":"m 294 126 l 323 116 q 304 57 268 22 q 231 -12 188 -12 q 148 -12 89 14 q 35 40 25 40 q 20 40 19 38 q 18 36 18 26 q 18 -12 -8 -12 q -28 -12 -28 8 q -28 48 32 114 q 68 153 100 177 q 131 200 222 257 q 257 278 283 307 q 256 300 241 300 q 212 300 164 317 q 127 328 114 328 q 83 328 46 262 l 18 276 q 78 392 156 392 q 178 392 226 368 q 264 349 286 349 q 295 349 300 354 q 304 358 308 371 q 313 392 328 392 q 336 392 342 386 q 348 381 348 372 q 348 356 329 325 q 311 293 282 261 q 251 226 221 202 q 191 178 142 151 q 93 122 75 109 q 56 95 42 77 q 68 84 82 84 q 108 84 167 64 q 204 51 222 51 q 262 51 294 126 z"},"B":{"x_min":0,"x_max":602,"ha":602,"o":"m 102 602 l 353 602 q 443 602 489 576 q 521 558 539 528 q 557 498 557 462 q 557 383 488 342 q 451 320 394 309 q 525 270 525 172 q 525 122 498 83 q 470 43 422 22 q 372 0 277 0 l -26 0 l -22 39 l -9 39 q 38 39 52 51 q 57 56 60 63 q 62 70 71 102 l 178 499 q 185 529 185 540 q 185 554 172 558 q 160 562 119 562 l 98 562 z m 224 328 l 293 328 q 367 328 405 358 q 429 377 443 408 q 458 440 458 475 q 458 521 434 542 q 411 562 359 562 l 335 562 q 303 562 293 553 q 282 544 272 506 z m 214 289 l 161 91 q 156 72 156 62 q 156 48 168 44 q 180 39 214 39 l 256 39 q 333 39 372 72 q 423 118 423 188 q 423 252 363 277 q 332 289 267 289 z"},"K":{"x_min":0,"x_max":618,"ha":618,"o":"m 206 285 l 446 485 q 491 522 491 542 q 491 553 480 558 q 470 562 442 562 l 423 562 l 428 602 l 678 602 l 674 562 q 624 558 590 542 q 556 526 507 481 l 350 350 l 477 88 q 494 52 504 45 q 513 39 555 39 l 581 39 l 576 0 l 303 0 l 308 39 l 335 39 q 368 39 380 42 q 392 45 392 54 q 392 59 378 87 l 281 292 l 187 214 l 157 102 q 148 68 148 62 q 148 48 161 43 q 173 39 214 39 l 236 39 l 232 0 l -33 0 l -29 39 l -25 39 q 32 39 44 51 q 49 55 52 62 q 55 70 63 102 l 170 499 q 178 529 178 540 q 178 554 165 558 q 152 562 112 562 l 90 562 l 95 602 l 359 602 l 355 562 l 352 562 q 294 562 282 551 q 277 547 274 540 q 272 533 262 499 z"},"R":{"x_min":0,"x_max":618,"ha":618,"o":"m 207 292 l 156 102 q 148 68 148 62 q 148 48 160 43 q 172 39 213 39 l 235 39 l 231 0 l -34 0 l -30 39 l -26 39 q 31 39 43 51 q 51 58 62 102 l 169 499 q 177 529 177 540 q 177 554 164 558 q 152 562 111 562 l 89 562 l 94 602 l 361 602 q 458 602 504 578 q 576 542 576 465 q 576 424 553 389 q 530 353 491 333 q 451 313 363 303 q 409 287 429 255 q 449 222 449 168 q 449 149 448 138 l 448 96 q 448 45 472 45 q 490 45 502 62 q 515 78 531 122 l 561 110 q 537 44 509 16 q 482 -12 442 -12 q 402 -12 378 15 q 353 43 353 88 q 353 108 358 172 q 361 198 361 217 q 361 258 339 275 q 317 292 264 292 z m 217 331 l 282 331 q 334 331 359 335 q 384 340 408 353 q 476 394 476 471 q 476 515 447 539 q 418 562 366 562 l 325 562 q 296 562 285 553 q 275 544 266 512 z"},"T":{"x_min":0,"x_max":571,"ha":571,"o":"m 605 602 l 570 372 l 535 377 q 537 411 537 435 q 537 512 506 542 q 482 562 435 562 l 423 562 q 404 562 397 555 q 390 548 382 516 l 271 102 q 263 74 263 62 q 263 48 276 43 q 288 39 329 39 l 360 39 l 355 0 l 67 0 l 71 39 l 89 39 q 147 39 159 51 q 167 58 178 102 l 292 528 q 296 542 296 548 q 296 562 268 562 l 257 562 q 188 562 139 498 q 115 468 68 382 l 33 387 l 107 602 z"},"P":{"x_min":0,"x_max":556,"ha":556,"o":"m 206 265 l 162 102 q 154 68 154 62 q 154 48 167 43 q 179 39 220 39 l 242 39 l 238 0 l -28 0 l -23 39 l -19 39 q 38 39 50 51 q 55 56 58 63 q 61 70 69 102 l 176 499 q 183 529 183 540 q 183 554 171 558 q 158 562 118 562 l 96 562 l 101 602 l 347 602 q 447 602 491 572 q 552 529 552 451 q 552 348 462 299 q 419 277 378 271 q 337 265 221 265 z m 217 304 l 232 304 q 314 304 326 306 q 391 312 423 352 q 459 397 459 460 q 459 516 432 539 q 404 562 338 562 l 328 562 q 302 562 292 555 q 282 547 275 522 z"},"|":{"x_min":0,"x_max":505,"ha":505,"o":"m 382 602 l 221 0 l 156 0 l 317 602 z"},"t":{"x_min":0,"x_max":293,"ha":293,"o":"m 224 518 l 183 379 l 274 379 l 262 340 l 172 340 l 92 74 q 90 64 90 55 q 90 32 109 32 q 130 32 152 53 q 174 75 212 133 l 238 117 q 208 69 196 52 q 174 23 142 5 q 110 -12 81 -12 q 56 -12 38 6 q 21 24 21 51 q 21 73 37 130 l 99 340 l 21 340 l 32 379 l 111 379 l 152 518 z"},"M":{"x_min":0,"x_max":787,"ha":787,"o":"m 302 602 l 347 152 l 631 602 l 811 602 l 807 562 l 803 562 q 746 562 733 551 q 728 547 726 540 q 723 533 714 499 l 608 102 q 600 75 600 62 q 600 48 612 43 q 625 39 666 39 l 688 39 l 682 0 l 418 0 l 422 39 l 426 39 q 483 39 496 51 q 502 58 515 102 l 625 513 l 303 0 l 273 0 l 222 502 l 136 181 q 117 103 117 85 q 117 39 191 39 l 187 0 l -22 0 l -18 39 q 28 41 48 67 q 68 92 91 181 l 176 499 q 184 531 184 540 q 184 554 172 558 q 159 562 118 562 l 97 562 l 101 602 z"},"g":{"x_min":0,"x_max":448,"ha":448,"o":"m 318 360 q 368 325 368 268 q 368 239 352 210 q 338 181 313 162 q 270 127 201 127 q 181 127 141 132 q 123 135 107 135 q 85 135 71 125 q 57 116 57 102 q 57 80 88 72 q 102 69 179 65 q 253 61 289 42 q 332 18 332 -33 q 332 -95 276 -132 q 220 -168 105 -168 q 11 -168 -36 -136 q -66 -112 -66 -75 q -66 -30 -25 -6 q -2 8 41 18 q -5 40 -5 79 q -5 113 22 135 q 47 156 98 162 q 46 190 46 249 q 46 307 97 349 q 148 392 217 392 q 252 392 288 376 q 345 421 383 421 q 405 421 420 408 q 436 395 436 378 q 436 362 426 351 q 417 341 402 341 q 392 341 387 345 q 381 349 371 362 q 361 376 349 376 q 337 376 318 360 z m 222 360 q 178 360 150 325 q 122 289 122 232 q 122 198 141 178 q 161 158 195 158 q 235 158 259 186 q 293 228 293 293 q 293 324 274 342 q 255 360 222 360 z m 121 2 q 65 2 33 -16 q 2 -35 2 -69 q 2 -133 120 -133 q 192 -133 230 -114 q 268 -94 268 -58 q 268 -27 238 -14 q 223 -8 186 -3 q 149 2 121 2 z"},"j":{"x_min":0,"x_max":262,"ha":262,"o":"m 232 392 l 133 58 q 107 -32 95 -60 q 84 -87 66 -110 q 15 -168 -53 -168 q -92 -168 -115 -150 q -138 -132 -138 -102 q -138 -80 -125 -66 q -112 -52 -92 -52 q -74 -52 -63 -62 q -52 -73 -52 -91 q -52 -101 -58 -113 q -62 -120 -62 -125 q -62 -131 -57 -135 q -52 -140 -45 -140 q 10 -140 45 -4 q 59 53 66 72 l 129 287 q 137 312 137 322 q 137 337 126 343 q 115 349 89 349 l 60 349 l 63 379 z m 264 550 q 264 531 251 518 q 238 505 218 505 q 200 505 187 518 q 174 532 174 550 q 174 568 187 582 q 200 595 219 595 q 238 595 251 582 q 264 568 264 550 z"},"i":{"x_min":0,"x_max":278,"ha":278,"o":"m 192 392 l 104 94 q 94 59 94 48 q 94 30 108 30 q 143 30 209 131 l 235 117 q 203 68 183 46 q 133 -12 80 -12 q 56 -12 39 3 q 22 18 22 40 q 22 60 41 124 l 89 287 q 97 314 97 323 q 97 349 49 349 l 29 349 l 32 379 z m 222 550 q 222 531 209 518 q 196 505 177 505 q 158 505 145 518 q 132 532 132 550 q 132 568 145 582 q 158 595 178 595 q 197 595 210 582 q 222 568 222 550 z"},"y":{"x_min":0,"x_max":417,"ha":417,"o":"m 183 262 l 220 87 q 307 224 307 292 q 307 308 302 336 q 300 346 300 350 q 300 367 312 379 q 324 392 341 392 q 358 392 368 380 q 378 368 378 348 q 378 328 367 300 q 356 272 321 203 q 220 7 153 -78 q 82 -168 11 -168 q -22 -168 -44 -150 q -66 -132 -66 -107 q -66 -88 -53 -75 q -41 -62 -22 -62 q 4 -62 13 -88 q 16 -94 16 -120 q 16 -133 32 -133 q 68 -133 120 -69 q 138 -47 168 1 q 142 148 108 271 q 95 324 77 324 q 66 324 56 309 q 46 294 22 244 l -3 256 q 48 392 105 392 q 132 392 150 361 q 169 331 183 262 z"},"@":{"x_min":0,"x_max":614,"ha":614,"o":"m 508 157 l 559 157 q 522 104 456 55 q 362 -12 258 -12 q 198 -12 150 12 q 102 36 76 77 q 49 118 41 175 q 32 231 51 297 q 69 364 108 424 q 146 483 198 527 q 249 568 309 590 q 368 613 424 613 q 496 613 548 580 q 599 546 619 488 q 638 431 621 362 q 605 306 567 253 q 528 200 477 165 q 415 122 366 122 q 341 122 329 138 q 317 152 323 177 q 326 187 328 193 q 294 158 270 142 q 246 128 221 128 q 200 128 182 138 q 164 148 154 165 q 136 198 150 252 q 172 332 241 392 q 272 419 308 436 q 344 452 371 452 q 395 452 408 438 q 421 424 422 398 l 448 445 l 521 445 l 396 204 q 388 191 386 179 q 383 171 388 165 q 392 159 402 159 q 418 159 443 175 q 468 190 494 217 q 522 245 544 284 q 567 322 576 357 q 587 399 580 441 q 572 482 548 513 q 504 571 418 571 q 310 571 220 495 q 131 418 99 301 q 68 182 118 107 q 168 31 277 31 q 404 31 508 157 z m 374 418 q 343 418 312 383 q 279 348 253 304 q 228 261 218 226 q 210 195 216 178 q 222 161 241 161 q 281 161 332 233 q 352 262 370 298 q 388 333 395 358 q 402 386 397 402 q 391 418 374 418 z"},".":{"x_min":0,"x_max":254,"ha":254,"o":"m 40 80 l 102 137 q 113 147 119 147 q 125 147 131 137 l 162 80 q 170 67 156 53 l 93 -3 q 82 -14 76 -14 q 70 -14 64 -3 l 32 53 q 26 67 40 80 z"},"p":{"x_min":0,"x_max":478,"ha":478,"o":"m 195 392 l 182 321 q 241 392 307 392 q 359 392 394 348 q 422 313 422 256 q 422 148 355 65 q 295 -12 205 -12 q 163 -12 143 2 q 122 18 106 61 l 65 -75 q 56 -108 56 -117 q 56 -129 68 -134 q 79 -138 109 -138 l 119 -138 l 116 -168 l -84 -168 l -81 -138 q -38 -137 -29 -128 q -19 -120 -7 -75 l 100 287 q 108 310 108 323 q 108 349 60 349 l 40 349 l 43 379 z m 281 348 q 228 348 185 282 q 162 247 145 195 q 128 142 128 106 q 128 72 147 51 q 167 29 198 29 q 262 29 304 120 q 343 201 343 274 q 343 308 326 328 q 309 348 281 348 z"},"X":{"x_min":0,"x_max":587,"ha":587,"o":"m 338 327 l 435 100 q 453 57 466 48 q 478 39 520 39 l 542 39 l 538 0 l 270 0 l 275 39 l 301 39 q 331 39 341 43 q 352 47 352 58 q 352 68 347 79 l 272 258 l 146 125 q 113 91 113 68 q 113 39 170 39 l 182 39 l 178 0 l -61 0 l -57 39 q -13 45 14 62 q 42 78 88 128 l 252 300 l 166 504 q 149 543 135 553 q 121 562 80 562 l 60 562 l 64 602 l 327 602 l 322 562 l 308 562 q 252 562 252 539 q 252 532 260 512 l 320 369 l 422 473 q 462 516 462 538 q 462 562 418 562 l 402 562 l 406 602 l 642 602 l 638 562 q 594 562 566 546 q 538 531 490 482 z"},"*":{"x_min":0,"x_max":431,"ha":431,"o":"m 248 409 l 218 394 q 215 392 208 389 q 200 386 198 385 q 196 383 190 380 q 184 377 181 374 q 178 372 172 367 q 167 362 160 357 q 154 351 147 343 q 132 330 123 325 q 110 318 95 322 q 81 325 78 337 q 74 348 82 363 q 91 378 105 385 q 114 390 152 395 q 171 397 211 417 l 241 432 l 219 447 q 206 455 200 458 q 195 462 182 465 q 170 469 152 471 q 137 472 130 477 q 122 482 119 492 q 115 504 122 518 q 128 531 142 538 q 178 555 194 520 q 201 506 208 496 q 216 486 220 482 q 225 478 238 469 l 260 455 l 268 484 q 269 487 271 495 q 273 503 273 505 q 273 507 275 513 q 276 520 276 523 q 276 527 276 533 q 276 539 275 546 q 274 552 273 560 q 267 600 302 618 q 315 624 327 620 q 339 616 343 603 q 348 586 330 560 q 318 543 311 530 q 304 516 302 509 q 299 502 294 484 l 286 454 l 316 469 q 318 470 325 473 q 331 477 332 478 q 333 478 339 481 q 344 483 346 485 q 348 486 352 489 q 357 492 360 495 q 363 498 368 501 q 372 505 378 510 q 382 515 388 520 q 402 534 412 539 q 426 546 440 542 q 454 538 458 526 q 461 515 452 500 q 444 485 430 478 q 422 473 403 471 q 394 470 387 469 q 379 468 372 467 q 365 465 361 464 q 358 463 351 460 q 345 458 343 457 q 341 456 333 452 q 326 448 323 447 l 293 432 l 315 417 q 317 416 319 414 q 330 408 336 404 q 342 401 354 398 q 366 394 382 392 q 398 391 405 386 q 412 382 415 372 q 419 360 412 346 q 405 332 392 326 q 357 308 340 343 q 333 358 325 368 q 318 378 313 381 q 309 384 296 394 l 274 409 l 267 379 q 260 356 259 345 q 258 334 261 303 q 269 264 232 246 q 219 239 207 243 q 194 248 191 260 q 185 278 204 303 q 221 328 227 342 q 233 357 240 379 z"},"Y":{"x_min":0,"x_max":571,"ha":571,"o":"m 302 303 l 443 485 q 465 511 465 530 q 465 545 451 554 q 437 562 412 562 l 392 562 l 397 602 l 632 602 l 628 562 q 582 560 556 542 q 529 525 485 470 l 318 257 l 277 102 q 268 68 268 62 q 268 48 281 43 q 294 39 335 39 l 365 39 l 361 0 l 72 0 l 77 39 l 95 39 q 152 39 164 51 q 170 56 172 62 q 174 68 183 102 l 225 257 l 125 505 q 111 540 94 551 q 78 562 41 562 l 27 562 l 31 602 l 288 602 l 283 562 l 260 562 q 209 562 209 542 q 209 533 218 511 z"},"c":{"x_min":0,"x_max":370,"ha":370,"o":"m 284 110 l 308 92 q 242 -12 148 -12 q 82 -12 43 29 q 4 70 4 138 q 4 238 71 315 q 138 392 226 392 q 271 392 302 365 q 334 339 334 302 q 334 275 319 257 q 304 239 282 239 q 262 239 250 250 q 238 262 238 280 q 238 307 268 320 q 282 325 282 332 q 282 343 265 352 q 248 360 228 360 q 176 360 132 298 q 81 224 81 127 q 81 80 101 54 q 122 28 158 28 q 221 28 284 110 z"},"!":{"x_min":0,"x_max":254,"ha":254,"o":"m 142 217 q 138 208 129 199 q 118 187 113 187 q 108 187 103 199 q 99 208 100 217 l 131 457 q 135 489 140 508 q 161 587 221 587 q 279 587 258 508 q 253 492 239 458 z m 30 80 l 88 139 q 98 149 104 149 q 109 149 114 139 l 141 80 q 147 67 133 53 l 76 -6 q 65 -17 60 -17 q 54 -17 49 -6 l 23 53 q 17 67 30 80 z"},"/":{"x_min":0,"x_max":244,"ha":244,"o":"m 304 613 l 365 613 l -25 -12 l -86 -12 z"},"[":{"x_min":0,"x_max":278,"ha":278,"o":"m 51 -60 l 168 -60 l 160 -90 l -32 -90 l 152 602 l 345 602 l 338 571 l 220 571 z"},"6":{"x_min":0,"x_max":475,"ha":475,"o":"m 151 288 q 223 358 302 358 q 374 358 412 309 q 449 259 430 187 q 419 148 393 109 q 367 70 332 42 q 262 -12 177 -12 q 81 -12 42 61 q 4 135 38 257 q 55 324 91 387 q 128 450 176 498 q 218 540 272 563 q 326 587 379 587 q 440 587 473 558 q 507 530 495 487 q 488 460 466 443 q 445 427 416 427 q 388 427 376 440 q 364 454 370 476 q 374 492 390 511 q 396 518 397 522 q 400 532 391 537 q 382 542 360 542 q 330 542 292 518 q 254 495 226 453 q 204 422 189 390 q 174 357 151 288 z m 264 299 q 218 299 181 264 q 145 229 128 169 q 117 125 126 89 q 138 32 190 32 q 232 32 267 72 q 302 112 321 180 q 336 236 320 268 q 305 299 264 299 z"},"r":{"x_min":0,"x_max":370,"ha":370,"o":"m 187 392 l 168 295 q 201 347 230 369 q 260 392 295 392 q 323 392 342 374 q 361 357 361 330 q 361 307 347 292 q 333 277 312 277 q 287 277 276 295 q 272 300 272 322 q 272 341 258 341 q 229 341 186 275 q 142 210 119 132 l 80 0 l 8 0 l 92 287 q 101 317 101 326 q 101 349 52 349 l 32 349 l 36 379 z"},"2":{"x_min":0,"x_max":475,"ha":475,"o":"m 419 180 l 355 0 l -29 0 l -22 23 q 42 86 86 126 l 170 196 l 233 248 q 348 342 374 438 q 388 487 365 514 q 342 542 291 542 q 270 542 245 531 q 219 521 202 505 q 178 486 173 465 q 173 462 172 462 q 172 461 173 459 q 174 457 174 456 q 174 455 177 453 q 179 452 180 451 q 182 451 185 449 q 188 448 190 446 q 192 445 196 443 q 200 442 202 440 q 215 434 220 421 q 224 408 220 392 q 214 370 194 356 q 174 342 148 342 q 113 342 101 365 q 88 389 99 430 q 118 497 183 542 q 249 587 329 587 q 420 587 460 542 q 501 497 481 424 q 465 365 411 310 q 370 271 256 198 q 189 154 115 95 l 278 95 q 318 95 332 104 q 347 113 362 145 l 378 180 z"},"{":{"x_min":0,"x_max":278,"ha":278,"o":"m 56 242 l 63 269 q 92 278 105 286 q 118 293 128 307 q 137 318 141 330 q 146 342 156 380 l 182 477 q 202 553 238 579 q 252 589 276 595 q 300 602 322 602 l 344 602 l 337 573 q 296 571 277 550 q 258 528 242 468 l 212 360 q 201 318 185 297 q 168 277 128 256 q 157 235 162 215 q 168 195 157 152 l 128 43 q 111 -17 119 -38 q 127 -59 167 -62 l 159 -90 l 138 -90 q 114 -90 94 -84 q 74 -78 65 -68 q 43 -42 63 35 l 89 132 q 100 172 102 186 q 103 200 99 212 q 95 222 86 228 q 78 234 56 242 z"},"9":{"x_min":0,"x_max":475,"ha":475,"o":"m 345 280 q 305 242 271 228 q 237 213 195 213 q 121 213 85 262 q 49 312 69 386 q 92 470 165 528 q 238 587 322 587 q 419 587 457 512 q 495 438 461 312 q 426 179 334 83 q 289 38 234 12 q 178 -12 119 -12 q 59 -12 26 15 q -7 43 4 84 q 11 110 32 127 q 54 144 84 144 q 111 144 122 130 q 134 117 129 95 q 125 82 108 58 q 102 51 101 48 q 98 38 109 35 q 119 32 142 32 q 177 32 215 58 q 253 84 281 129 q 306 172 345 280 z m 313 542 q 267 542 230 499 q 198 462 181 401 q 164 339 179 305 q 193 272 238 272 q 289 272 330 318 q 355 345 368 397 q 387 462 371 502 q 356 542 313 542 z"}," ":{"x_min":0,"x_max":308,"ha":308,"o":""},"I":{"x_min":0,"x_max":339,"ha":339,"o":"m 236 39 l 231 0 l -28 0 l -23 39 q 35 40 47 51 q 54 58 66 102 l 172 499 q 181 532 181 540 q 181 554 168 558 q 155 562 114 562 l 96 562 l 101 602 l 359 602 l 355 562 q 297 562 285 551 q 278 543 266 499 l 159 102 q 151 71 151 62 q 151 48 164 44 q 177 39 218 39 z"},"H":{"x_min":0,"x_max":694,"ha":694,"o":"m 478 295 l 210 295 l 158 102 q 150 68 150 62 q 150 48 162 43 q 175 39 216 39 l 238 39 l 233 0 l -32 0 l -28 39 l -23 39 q 33 39 46 51 q 53 58 65 102 l 172 499 q 179 529 179 540 q 179 554 167 558 q 154 562 113 562 l 92 562 l 97 602 l 361 602 l 357 562 l 353 562 q 296 562 284 551 q 278 547 276 540 q 273 533 265 499 l 220 334 l 488 334 l 532 499 q 541 528 541 540 q 541 554 528 558 q 516 562 475 562 l 453 562 l 458 602 l 722 602 l 718 562 l 715 562 q 658 562 645 551 q 640 547 638 540 q 635 533 626 499 l 519 102 q 512 74 512 62 q 512 48 524 43 q 537 39 578 39 l 599 39 l 594 0 l 330 0 l 334 39 l 338 39 q 395 39 408 51 q 414 58 427 102 z"},"4":{"x_min":0,"x_max":475,"ha":475,"o":"m 406 587 l 454 587 q 433 524 405 420 l 344 192 l 432 192 l 420 146 l 332 146 l 320 102 l 315 82 q 308 56 315 50 q 323 43 367 43 l 370 43 l 358 0 l 115 0 l 127 43 l 136 43 q 178 43 190 50 q 202 57 209 82 l 214 102 l 226 146 l 4 146 l 17 192 z m 238 192 l 298 413 l 77 192 z"},"~":{"x_min":0,"x_max":505,"ha":505,"o":"m 63 152 l 28 183 q 62 224 100 248 q 138 272 168 272 q 195 272 243 246 l 277 228 q 305 212 315 208 q 324 204 338 204 q 373 204 423 258 l 459 227 q 425 186 387 162 q 348 138 318 138 q 292 138 243 163 l 210 182 q 178 200 170 203 q 162 206 149 206 q 113 206 63 152 z"},"D":{"x_min":0,"x_max":648,"ha":648,"o":"m -32 0 l -28 39 l -23 39 q 33 39 46 51 q 51 56 54 63 q 57 70 65 102 l 172 499 q 179 529 179 540 q 179 554 167 558 q 154 562 113 562 l 92 562 l 97 602 l 338 602 q 408 602 452 592 q 495 582 526 558 q 612 493 612 362 q 612 279 573 198 q 533 118 467 64 q 423 30 366 15 q 308 0 220 0 z m 189 39 l 216 39 q 332 39 388 87 q 438 132 475 227 q 512 322 512 408 q 512 486 472 526 q 433 562 355 562 l 330 562 q 297 562 287 554 q 277 545 267 508 l 156 92 q 151 77 151 63 q 151 39 189 39 z"},"^":{"x_min":0,"x_max":505,"ha":505,"o":"m 468 265 l 396 265 l 330 524 l 122 265 l 50 265 l 314 602 l 385 602 z"},"0":{"x_min":0,"x_max":475,"ha":475,"o":"m 336 587 q 395 587 430 547 q 466 507 471 439 q 476 371 454 282 q 419 152 339 70 q 259 -12 168 -12 q 110 -12 74 27 q 38 66 30 132 q 23 198 45 285 q 80 416 162 501 q 244 587 336 587 z m 318 542 q 296 542 272 525 q 248 508 227 478 q 193 431 158 302 q 132 203 125 157 q 118 111 127 82 q 142 32 182 32 q 203 32 228 49 q 252 66 273 96 q 292 122 308 167 q 325 212 348 298 q 370 380 375 422 q 381 465 372 492 q 358 542 318 542 z"},"F":{"x_min":0,"x_max":556,"ha":556,"o":"m 582 602 l 549 401 l 512 401 l 512 430 q 512 473 505 496 q 498 519 481 535 q 450 562 396 562 l 352 562 q 306 562 293 554 q 280 545 269 505 l 223 334 l 242 334 q 303 334 338 359 q 372 383 391 438 l 428 433 l 354 155 l 317 162 q 324 196 324 219 q 324 295 232 295 l 213 295 l 162 102 q 153 68 153 62 q 153 48 166 43 q 178 39 219 39 l 241 39 l 237 0 l -28 0 l -24 39 l -20 39 q 37 39 49 51 q 57 58 68 102 l 175 499 q 182 529 182 540 q 182 554 170 558 q 158 562 117 562 l 95 562 l 100 602 z"},"`":{"x_min":0,"x_max":278,"ha":278,"o":"m 257 446 l 222 446 l 112 527 q 95 541 100 559 q 103 572 114 580 q 124 588 137 588 q 147 588 153 583 q 160 578 172 562 z"},"k":{"x_min":0,"x_max":463,"ha":463,"o":"m 250 614 l 147 266 q 189 332 228 362 q 268 392 311 392 q 345 392 369 370 q 392 348 392 316 q 392 231 240 177 q 260 160 268 139 q 277 118 280 75 q 282 50 285 42 q 288 34 298 34 q 312 34 330 54 q 348 73 384 128 l 410 112 q 371 47 338 17 q 305 -12 271 -12 q 209 -12 209 71 q 209 90 210 112 l 210 142 q 210 165 197 165 q 195 165 180 163 q 174 162 168 162 q 161 162 155 168 q 150 173 150 181 q 150 203 176 203 q 188 203 198 199 q 206 197 209 197 q 218 197 244 210 q 325 250 325 299 q 325 318 314 330 q 303 342 287 342 q 263 342 233 321 q 202 300 175 265 q 155 239 134 195 q 112 151 100 108 l 68 0 l -4 0 l 147 509 q 154 537 154 546 q 154 572 107 572 l 81 572 l 84 602 z"},"u":{"x_min":0,"x_max":509,"ha":509,"o":"m 424 379 l 342 102 q 332 66 332 53 q 332 45 336 39 q 341 33 348 33 q 374 33 438 128 l 463 112 q 419 44 385 16 q 351 -12 312 -12 q 289 -12 274 3 q 259 18 259 42 q 259 64 269 99 q 198 -12 114 -12 q 79 -12 57 10 q 35 31 35 65 q 35 84 38 98 q 42 112 61 174 l 94 287 q 101 311 101 322 q 101 337 90 343 q 80 349 54 349 l 34 349 l 37 379 l 198 392 l 116 118 q 107 88 107 71 q 107 56 117 45 q 128 35 142 35 q 187 35 237 97 q 287 159 312 246 l 352 379 z"},"]":{"x_min":0,"x_max":278,"ha":278,"o":"m 237 572 l 120 572 l 128 602 l 319 602 l 134 -90 l -58 -90 l -49 -59 l 68 -59 z"},"U":{"x_min":0,"x_max":679,"ha":679,"o":"m 83 562 l 88 602 l 352 602 l 348 562 l 344 562 q 287 562 275 551 q 269 546 267 539 q 264 532 256 499 l 181 222 q 169 175 169 136 q 169 82 205 53 q 240 23 303 23 q 400 23 448 93 q 463 114 474 143 q 484 172 502 242 l 551 421 q 570 498 570 517 q 570 563 492 562 l 498 602 l 717 602 l 712 562 q 682 561 668 558 q 654 555 640 538 q 627 522 619 498 q 611 474 596 421 l 549 245 q 527 160 515 131 q 496 80 470 51 q 443 22 402 7 q 352 -12 286 -12 q 184 -12 131 28 q 78 69 78 147 q 78 185 94 245 l 162 499 q 170 529 170 540 q 170 554 158 558 q 145 562 104 562 z"},"o":{"x_min":0,"x_max":417,"ha":417,"o":"m 228 392 q 288 392 332 345 q 375 299 375 234 q 375 136 304 56 q 243 -12 152 -12 q 84 -12 44 30 q 4 72 4 143 q 4 248 74 320 q 143 392 228 392 z m 223 360 q 177 360 142 315 q 116 281 98 220 q 79 158 79 107 q 79 19 153 19 q 187 19 211 39 q 235 58 257 102 q 273 136 285 180 q 296 225 296 258 q 296 306 277 333 q 258 360 223 360 z"},"N":{"x_min":0,"x_max":679,"ha":679,"o":"m 262 602 l 473 142 l 548 421 q 568 498 568 517 q 568 562 492 562 l 498 602 l 716 602 l 712 562 q 659 561 638 536 q 617 511 593 421 l 478 -12 l 445 -12 l 213 489 l 131 181 q 111 103 111 85 q 111 39 186 39 l 195 39 l 190 0 l -40 0 l -36 39 q 2 40 22 51 q 41 62 55 90 q 68 118 85 181 l 180 536 q 175 552 165 558 q 156 562 126 562 l 82 562 l 87 602 z"},"+":{"x_min":0,"x_max":505,"ha":505,"o":"m 221 244 l 268 421 l 334 421 l 288 244 l 464 244 l 446 178 l 269 178 l 222 0 l 155 0 l 202 178 l 26 178 l 44 244 z"},"G":{"x_min":0,"x_max":648,"ha":648,"o":"m 616 596 l 570 362 l 535 368 q 534 448 515 490 q 497 532 463 555 q 429 578 386 578 q 272 578 198 438 q 169 381 152 313 q 134 245 134 185 q 134 109 174 66 q 213 23 282 23 q 406 23 439 148 l 447 174 q 454 204 454 215 q 454 229 442 233 q 429 238 388 238 l 361 238 l 365 277 l 636 277 l 631 238 l 628 238 q 571 238 558 226 q 552 222 550 215 q 548 208 539 174 l 489 -12 l 452 -12 l 442 56 q 403 19 362 3 q 321 -12 262 -12 q 154 -12 93 51 q 32 114 32 228 q 32 391 157 515 q 256 614 379 614 q 430 614 467 598 q 503 581 536 544 l 588 596 z"},"q":{"x_min":0,"x_max":463,"ha":463,"o":"m 416 392 l 278 -75 q 268 -108 268 -117 q 268 -129 280 -134 q 292 -138 322 -138 l 328 -138 l 325 -168 l 120 -168 l 123 -138 q 172 -138 182 -129 q 192 -121 205 -75 l 241 46 q 187 -12 126 -12 q 101 -12 76 -2 q 51 8 35 24 q 0 58 0 121 q 0 227 69 309 q 138 392 226 392 q 290 392 332 334 l 383 392 z m 230 359 q 200 359 170 335 q 141 310 118 266 q 101 234 90 192 q 79 149 79 115 q 79 77 97 52 q 115 28 144 28 q 178 28 208 54 q 238 80 260 128 q 275 160 286 205 q 297 249 297 280 q 297 315 278 337 q 259 359 230 359 z"},"d":{"x_min":0,"x_max":509,"ha":509,"o":"m 445 132 l 470 117 q 402 -12 324 -12 q 268 -12 268 47 q 268 58 268 65 q 215 -12 133 -12 q 75 -12 39 26 q 2 64 2 125 q 2 228 73 310 q 144 392 234 392 q 281 392 309 362 q 322 348 330 323 l 385 509 q 392 534 392 546 q 392 572 345 572 l 319 572 l 322 602 l 488 614 l 340 114 q 328 70 328 54 q 328 32 348 32 q 369 32 389 52 q 408 72 445 132 z m 237 354 q 175 354 128 272 q 83 194 83 117 q 83 76 104 51 q 124 27 158 27 q 218 27 260 108 q 280 146 294 195 q 308 245 308 278 q 308 312 288 333 q 268 354 237 354 z"},"1":{"x_min":0,"x_max":475,"ha":475,"o":"m 368 587 l 410 587 q 382 504 367 447 l 275 107 q 266 72 265 66 q 264 59 268 55 q 273 43 333 43 l 367 43 l 355 0 l 25 0 l 37 43 l 78 43 q 128 43 142 50 q 156 56 163 82 l 169 107 l 257 432 q 267 469 261 477 q 255 485 219 485 l 158 485 l 169 525 q 227 527 283 544 q 339 561 368 587 z"},"5":{"x_min":0,"x_max":475,"ha":475,"o":"m 204 476 l 158 351 q 198 366 222 371 q 246 376 272 376 q 361 376 401 324 q 441 272 418 187 q 394 95 320 41 q 245 -12 142 -12 q 76 -12 39 15 q 15 34 5 64 q -4 93 4 124 q 12 154 37 174 q 61 194 91 194 q 119 194 132 180 q 144 165 138 142 q 133 126 124 115 q 114 105 92 93 q 74 85 72 75 q 67 57 94 44 q 122 32 153 32 q 203 32 240 61 q 287 98 309 182 q 328 251 308 288 q 288 326 238 326 q 213 326 195 320 q 178 315 149 302 q 141 298 128 281 q 115 265 102 264 q 91 263 85 269 q 78 275 81 287 q 82 293 89 306 q 96 318 98 324 q 157 481 191 587 q 250 572 286 567 q 322 562 364 562 q 400 562 423 566 q 447 570 481 583 q 487 587 492 587 q 499 587 497 579 q 492 564 474 541 q 448 508 401 485 q 353 462 302 462 q 259 462 204 476 z"}}}
